<svg xmlns="http://www.w3.org/2000/svg" width="1067" height="600" viewBox="0 0 1067 600" version="1.1">
	<path d="M 264.500 78.504 C 260.650 80.485, 255.250 82.539, 252.500 83.067 C 245.574 84.398, 242.030 86.253, 238.246 90.527 C 234.692 94.541, 234.197 96.478, 236.500 97.362 C 237.342 97.685, 238 99.172, 238 100.752 C 238 103.459, 237.723 103.616, 230.750 104.871 C 219.127 106.964, 210.745 109.208, 207.220 111.172 C 205.415 112.178, 203.455 113, 202.864 113 C 202.273 113, 200.543 114.013, 199.020 115.250 C 196.535 117.270, 194.008 118.912, 187.549 122.702 C 184.049 124.756, 174.407 133.477, 170.783 137.866 C 168.962 140.071, 168.655 140.162, 157.043 141.930 C 152.942 142.554, 148.856 143.725, 147.964 144.532 C 147.072 145.340, 145.877 146, 145.307 146 C 144.737 146, 140.847 148.700, 136.662 152 C 132.477 155.300, 128.624 158, 128.100 158 C 126.859 158, 104.320 180.402, 100.750 185.183 C 99.238 187.209, 98 189.347, 98 189.933 C 98 190.520, 97.558 191, 97.017 191 C 96.476 191, 94.904 193.230, 93.522 195.956 C 92.141 198.682, 90.180 201.719, 89.163 202.706 C 88.147 203.693, 85.782 207.383, 83.908 210.907 C 82.034 214.431, 79.549 218.368, 78.386 219.656 C 77.224 220.944, 75.459 224.136, 74.466 226.749 C 73.472 229.362, 72.128 231.950, 71.479 232.500 C 70.829 233.050, 69.262 236.349, 67.997 239.831 C 66.731 243.313, 65.170 246.688, 64.527 247.331 C 63.104 248.754, 58.461 261.982, 57.447 267.500 C 57.042 269.700, 56.407 271.725, 56.036 272 C 54.773 272.934, 50.993 286.471, 50.037 293.486 C 49.513 297.328, 48.615 300.628, 48.042 300.819 C 47.469 301.010, 47 302.847, 47 304.900 C 47 306.953, 46.560 311.078, 46.023 314.066 C 43.673 327.127, 43.127 354.503, 44.866 372 C 45.441 377.775, 46.220 387.209, 46.599 392.966 C 46.978 398.722, 47.798 403.941, 48.422 404.565 C 49.045 405.188, 50.368 411.504, 51.362 418.599 C 53.058 430.708, 54.710 437.845, 56.084 439 C 56.411 439.275, 57.243 442.425, 57.933 446 C 58.623 449.575, 59.511 452.950, 59.906 453.500 C 60.301 454.050, 61.223 456.975, 61.955 460 C 62.686 463.025, 63.571 465.725, 63.920 466 C 64.269 466.275, 65.330 468.413, 66.278 470.750 C 70.558 481.312, 71.347 483, 72 483 C 72.383 483, 73.515 484.816, 74.516 487.035 C 75.516 489.254, 77.483 492.291, 78.887 493.785 C 80.290 495.278, 82.889 498.383, 84.663 500.685 C 86.436 502.986, 89.758 506.586, 92.044 508.685 C 94.331 510.783, 96.719 513.103, 97.351 513.840 C 103.555 521.071, 115.918 532.423, 123 537.390 C 127.634 540.641, 141.823 547.675, 145.546 548.568 C 147.171 548.957, 148.955 549.629, 149.510 550.061 C 150.654 550.951, 162.581 554.276, 174.500 557.030 C 187.241 559.973, 203.091 561.356, 210.301 560.155 C 213.710 559.586, 219.650 558.836, 223.500 558.488 C 237.874 557.186, 242.159 556.233, 264.319 549.405 C 285.351 542.924, 289.639 542.462, 324.500 542.923 C 392.686 543.825, 400.880 543.464, 419 538.763 C 423.125 537.693, 427.850 536.567, 429.500 536.262 C 431.150 535.957, 433.400 535.123, 434.500 534.409 C 435.600 533.695, 438.748 532.609, 441.495 531.996 C 450.798 529.920, 483.956 514.254, 488 510.023 C 488.518 509.481, 494.551 506.592, 501.500 503.559 C 503.700 502.598, 506.763 500.289, 508.306 498.426 C 509.849 496.564, 512.698 494.288, 514.637 493.368 C 516.575 492.448, 520.816 489.106, 524.061 485.941 C 529.634 480.504, 529.994 479.862, 530.558 474.343 C 530.887 471.129, 531.559 467.600, 532.052 466.500 C 532.545 465.400, 533.893 461.913, 535.046 458.750 C 536.200 455.588, 537.513 453, 537.964 453 C 538.415 453, 539.570 449.738, 540.529 445.750 C 541.488 441.762, 542.640 438.030, 543.088 437.457 C 543.536 436.883, 544.211 433.395, 544.589 429.707 C 544.967 426.018, 545.620 423, 546.039 423 C 546.459 423, 547.071 417.713, 547.398 411.250 C 547.726 404.788, 548.434 395.450, 548.971 390.500 C 550.899 372.744, 551.182 347.230, 549.620 332 C 548.802 324.025, 547.831 313.788, 547.462 309.250 C 547.094 304.712, 546.441 301, 546.012 301 C 545.584 301, 544.920 298.080, 544.538 294.511 C 544.156 290.941, 543.428 287.765, 542.922 287.452 C 542.415 287.138, 542 286.024, 542 284.976 C 542 282.257, 539.039 273.896, 537.548 272.405 C 536.855 271.713, 535.732 268.301, 535.051 264.823 C 533.742 258.139, 530.146 246.843, 529.059 246 C 528.705 245.725, 526.879 241.900, 525.001 237.500 C 523.124 233.100, 521.013 229.144, 520.310 228.709 C 519.607 228.274, 518.339 225.535, 517.493 222.623 C 516.646 219.710, 515.081 216.390, 514.014 215.245 C 512.948 214.101, 510.624 210.090, 508.852 206.332 C 507.079 202.574, 505.081 198.949, 504.412 198.277 C 503.743 197.604, 502.165 195.354, 500.906 193.277 C 499.646 191.199, 497.689 188.527, 496.558 187.337 C 495.426 186.148, 493.600 183.991, 492.500 182.544 C 487.151 175.508, 475.963 163.848, 471.008 160.145 C 468.529 158.292, 466.050 156.264, 465.500 155.638 C 463.917 153.836, 445.376 147.874, 435.500 145.991 C 423.501 143.703, 414.236 144.004, 386.441 147.582 C 381.695 148.193, 381.271 148.063, 379.573 145.471 C 378.578 143.952, 375.528 140.543, 372.797 137.897 C 370.065 135.250, 368.071 132.694, 368.366 132.217 C 368.661 131.740, 372.637 130.520, 377.201 129.506 C 387.080 127.312, 388.195 126.594, 387.801 122.686 C 387.471 119.412, 387.206 119.223, 378.500 116.039 C 375.200 114.832, 370.651 112.980, 368.390 111.923 C 366.130 110.865, 364.006 110, 363.670 110 C 362.410 110, 352.091 104.956, 351.546 104.074 C 351.233 103.568, 349.520 102.850, 347.739 102.479 C 345.957 102.107, 340.450 99.881, 335.500 97.530 C 322.114 91.174, 321.526 91, 313.453 91 C 305.772 91, 305.031 90.524, 307.230 87.003 C 308.247 85.375, 308.165 84.737, 306.760 83.331 C 305.314 81.886, 304.702 81.822, 302.678 82.905 C 300.579 84.028, 299.610 83.812, 294.489 81.079 C 291.294 79.375, 288.190 77.579, 287.590 77.090 C 286.991 76.600, 283.125 75.908, 279 75.551 C 271.765 74.925, 271.252 75.029, 264.500 78.504 M 266.290 89.686 C 265.878 90.761, 266.304 91.758, 267.467 92.436 C 268.470 93.021, 270.462 94.805, 271.895 96.399 C 273.328 97.994, 275.125 99.794, 275.890 100.399 C 276.654 101.005, 278.761 102.963, 280.572 104.750 C 282.384 106.537, 284.342 108, 284.925 108 C 285.508 108, 287.187 109.350, 288.658 111 C 290.128 112.650, 291.931 114, 292.665 114 C 294.958 114, 294.134 111.339, 290.750 107.814 C 288.962 105.952, 286.375 102.984, 285 101.218 C 283.625 99.452, 281.485 96.768, 280.244 95.253 C 279.003 93.739, 277.751 91.761, 277.461 90.858 C 276.475 87.786, 267.385 86.832, 266.290 89.686 M 283.093 90.304 C 284.082 92.476, 287.794 95.540, 288.536 94.797 C 289.504 93.830, 285.525 88, 283.897 88 C 282.324 88, 282.202 88.350, 283.093 90.304 M 245.583 93.866 C 245.152 94.563, 245.070 95.403, 245.400 95.733 C 246.295 96.628, 247.271 95.312, 246.787 93.862 C 246.449 92.846, 246.213 92.846, 245.583 93.866 M 311.508 102.168 C 311.894 104, 312.613 105.927, 313.105 106.450 C 314.557 107.991, 316.191 105.544, 315.828 102.372 C 315.585 100.240, 314.895 99.414, 313.152 99.168 C 310.980 98.860, 310.857 99.084, 311.508 102.168 M 266 100.838 C 266 101.338, 267.800 103.716, 270 106.123 C 272.200 108.530, 274 110.837, 274 111.250 C 274 112.454, 277.812 112.113, 278.600 110.838 C 279.013 110.171, 278.293 108.898, 276.909 107.848 C 275.584 106.843, 273.600 105.170, 272.500 104.130 C 269.876 101.649, 266 99.687, 266 100.838 M 322 100.283 C 322 101.714, 324.328 107, 324.958 107 C 325.378 107, 327.154 109.688, 328.905 112.973 C 330.656 116.258, 332.641 119.520, 333.317 120.223 C 333.993 120.925, 336.091 124.537, 337.978 128.250 C 339.865 131.963, 341.767 135, 342.205 135 C 342.642 135, 343 135.675, 343 136.500 C 343 137.325, 343.450 138, 344 138 C 345.652 138, 345.132 135.518, 343 133.230 C 341.900 132.050, 341.003 130.502, 341.006 129.792 C 341.017 127.152, 334.437 109.437, 332.750 107.565 C 331.788 106.497, 331 105.022, 331 104.287 C 331 103.552, 329.988 102.572, 328.750 102.109 C 324.660 100.579, 322 99.859, 322 100.283 M 255 101.825 C 255 102.279, 255.787 103.388, 256.750 104.290 C 257.712 105.192, 261.078 108.420, 264.228 111.465 C 269.141 116.212, 273 118.403, 273 116.444 C 273 116.139, 270.163 113.052, 266.695 109.584 C 259.525 102.414, 255 99.412, 255 101.825 M 298.033 105.065 C 300.079 109.076, 302.210 109.831, 302.806 106.758 C 303.150 104.985, 299.333 101, 297.291 101 C 296.304 101, 296.496 102.052, 298.033 105.065 M 339 106.710 C 339 108.277, 341.615 114.621, 342.759 115.830 C 343.451 116.561, 345.150 119.555, 346.535 122.483 C 347.921 125.411, 349.781 128.086, 350.669 128.426 C 352.069 128.964, 352.204 128.374, 351.686 123.996 C 351.357 121.218, 350.393 118.250, 349.544 117.401 C 348.695 116.552, 348 114.795, 348 113.497 C 348 112.050, 346.935 110.398, 345.250 109.231 C 342.046 107.011, 339 105.782, 339 106.710 M 317.211 111.538 C 316.460 112.389, 316.355 113, 316.961 113 C 317.532 113, 318 113.489, 318 114.086 C 318 115.813, 324.300 128, 325.192 128 C 325.637 128, 326 128.439, 326 128.976 C 326 129.513, 326.942 131.425, 328.092 133.226 L 330.185 136.500 329.551 133.662 C 328.654 129.641, 325.672 123, 324.764 123 C 324.344 123, 324 122.296, 324 121.435 C 324 119.439, 319.959 109.988, 319.127 110.038 C 318.782 110.059, 317.920 110.734, 317.211 111.538 M 229.715 111.619 C 228.943 112.390, 233.576 118.210, 241.849 126.861 C 245.341 130.512, 248.584 134.491, 249.056 135.702 C 249.835 137.702, 256 141.899, 256 140.430 C 256 139.491, 252.671 133.720, 251.252 132.198 C 250.565 131.462, 249.729 129.767, 249.393 128.430 C 249.058 127.094, 248.437 126, 248.013 126 C 247.589 126, 246.638 124.537, 245.898 122.750 C 245.158 120.963, 243.304 118.447, 241.777 117.161 C 240.249 115.875, 239 113.962, 239 112.911 C 239 111.324, 238.266 111, 234.667 111 C 232.283 111, 230.055 111.278, 229.715 111.619 M 221.638 114.500 C 221.955 115.325, 222.391 116, 222.607 116 C 222.823 116, 223 115.325, 223 114.500 C 223 113.675, 222.564 113, 222.031 113 C 221.499 113, 221.322 113.675, 221.638 114.500 M 356.362 117.058 C 357.060 120.552, 359.503 123.425, 360.992 122.505 C 362.638 121.488, 362.223 116, 360.500 116 C 359.675 116, 359 115.550, 359 115 C 359 114.450, 358.269 114, 357.375 114 C 356.096 114, 355.880 114.651, 356.362 117.058 M 213.018 115.968 C 211.780 116.751, 212.017 117.408, 214.455 119.953 C 216.060 121.629, 218.077 122.986, 218.937 122.970 C 220.284 122.943, 220.269 122.804, 218.828 121.964 C 217.909 121.427, 216.860 119.641, 216.499 117.994 C 215.793 114.781, 215.325 114.509, 213.018 115.968 M 306.650 116.683 C 304.810 118.523, 307.184 127, 309.539 127 C 310.209 127, 311.310 128.335, 311.986 129.967 C 313.477 133.566, 316 135.989, 316 133.822 C 316 133.040, 315.616 131.972, 315.147 131.450 C 314.679 130.928, 313.704 128.305, 312.982 125.623 C 311.678 120.778, 307.895 115.438, 306.650 116.683 M 364.393 119.582 C 364.727 120.452, 365 121.529, 365 121.975 C 365 123.310, 367.987 124.041, 370.678 123.366 L 373.198 122.734 370.443 120.367 C 367.237 117.611, 363.448 117.120, 364.393 119.582 M 290.750 121.689 C 288.338 122.320, 288.560 124.650, 291.290 127.381 C 292.550 128.641, 295.128 132.108, 297.020 135.086 C 298.911 138.064, 301.030 141.095, 301.729 141.821 C 302.428 142.548, 303 143.557, 303 144.064 C 303 146.147, 307.217 149.756, 309.081 149.269 C 311.350 148.675, 311.596 147.166, 309.551 146.381 C 308.755 146.076, 307.365 143.502, 306.463 140.663 C 305.562 137.823, 304.189 134.082, 303.412 132.349 C 302.635 130.616, 302 128.703, 302 128.099 C 302 127.494, 301.649 127, 301.219 127 C 300.790 127, 299.929 125.650, 299.306 124 C 298.164 120.975, 295.862 120.354, 290.750 121.689 M 198 123 C 198 123.550, 198.477 124, 199.059 124 C 199.641 124, 199.840 123.550, 199.500 123 C 199.160 122.450, 198.684 122, 198.441 122 C 198.198 122, 198 122.450, 198 123 M 256.430 124.750 C 257.245 126.263, 259.082 128.584, 260.513 129.910 C 261.943 131.235, 263.789 133.626, 264.615 135.222 C 265.545 137.021, 266.759 138.002, 267.808 137.802 C 270.461 137.297, 270.331 133.697, 267.544 130.455 C 266.146 128.830, 265.002 127.212, 265.001 126.860 C 265 126.261, 256.657 122, 255.485 122 C 255.190 122, 255.615 123.237, 256.430 124.750 M 274.496 126.007 C 274.153 126.561, 274.577 127.284, 275.437 127.614 C 276.296 127.944, 277 128.643, 277 129.167 C 277 130.310, 282.933 138.497, 286.300 142 C 287.622 143.375, 289.231 145.502, 289.875 146.727 C 290.519 147.952, 291.996 149.463, 293.158 150.085 C 295.133 151.142, 295.224 151.029, 294.556 148.358 C 294.163 146.786, 293.202 145.140, 292.420 144.700 C 291.639 144.260, 291 143.336, 291 142.647 C 291 140.081, 285.512 130.407, 282.558 127.766 C 279.463 124.999, 275.635 124.164, 274.496 126.007 M 318.004 127.750 C 318.006 128.162, 318.822 129.850, 319.818 131.500 C 320.814 133.150, 322.221 136.637, 322.945 139.250 C 323.668 141.863, 324.651 144, 325.130 144 C 325.608 144, 326 144.675, 326 145.500 C 326 146.325, 326.388 147, 326.861 147 C 327.896 147, 332 157.406, 332 160.030 C 332 162.333, 329.786 163.857, 329.161 161.984 C 328.910 161.230, 327.700 159.609, 326.472 158.381 C 325.244 157.153, 322.759 153.865, 320.951 151.074 C 319.143 148.283, 317.289 146, 316.832 146 C 316.374 146, 316 145.531, 316 144.958 C 316 144.385, 315.535 143.372, 314.966 142.708 C 314.397 142.044, 313.265 140.600, 312.451 139.500 C 311.049 137.608, 311.003 137.662, 311.591 140.500 C 312.359 144.205, 315.850 151.786, 317.943 154.294 C 324.866 162.592, 330.206 166.369, 334.869 166.266 C 336.721 166.225, 338.884 165.544, 339.675 164.753 C 340.926 163.503, 340.683 162.611, 337.807 157.908 C 335.988 154.933, 333.923 151.891, 333.217 151.146 C 332.512 150.401, 331.044 148.151, 329.957 146.146 C 327.380 141.396, 325.650 138.621, 324.879 138 C 324.537 137.725, 323.027 135.137, 321.524 132.250 C 318.926 127.261, 317.995 126.071, 318.004 127.750 M 331 128.811 C 331 129.808, 331.900 131.589, 333 132.770 C 334.100 133.950, 335 135.147, 335 135.429 C 335 135.710, 336.125 138.400, 337.500 141.406 C 338.875 144.412, 340 147.281, 340 147.780 C 340 148.280, 341.124 149.996, 342.499 151.594 C 343.873 153.193, 344.998 155.063, 344.999 155.750 C 344.999 156.438, 345.450 157, 346 157 C 347.645 157, 347.141 154.032, 344.750 149.636 C 343.512 147.361, 342.230 145.275, 341.900 145 C 341.569 144.725, 339.796 141.238, 337.958 137.250 C 336.121 133.262, 334.253 130, 333.809 130 C 333.364 130, 333 129.325, 333 128.500 C 333 127.675, 332.550 127, 332 127 C 331.450 127, 331 127.815, 331 128.811 M 353 132.941 C 353 133.459, 353.445 134.157, 353.989 134.493 C 354.555 134.843, 354.723 134.442, 354.382 133.552 C 353.717 131.820, 353 131.503, 353 132.941 M 180.250 137.662 C 178.120 138.522, 178.859 140.999, 181.250 141.011 C 182.488 141.017, 185.188 141.301, 187.250 141.642 C 190.266 142.140, 191 141.952, 191 140.678 C 191 138.452, 183.504 136.349, 180.250 137.662 M 348.638 139.500 C 348.955 140.325, 349.571 141, 350.007 141 C 350.442 141, 351.618 143.277, 352.618 146.059 C 354.506 151.309, 357 154.555, 357 151.763 C 357 149.266, 350.750 138, 349.365 138 C 348.618 138, 348.308 138.640, 348.638 139.500 M 245.867 140.500 C 247.063 142.773, 251.880 147.469, 252.418 146.885 C 252.613 146.673, 250.982 144.700, 248.793 142.500 C 246.605 140.300, 245.288 139.400, 245.867 140.500 M 361.816 139.518 C 360.930 140.403, 364.600 152.367, 365.888 152.796 C 367.778 153.426, 373 150.916, 373 149.379 C 373 148.620, 372.663 147.999, 372.250 147.997 C 371.837 147.996, 370.600 146.647, 369.500 145 C 368.400 143.353, 367.085 142.004, 366.579 142.003 C 366.072 142.001, 364.911 141.324, 363.998 140.498 C 363.085 139.672, 362.103 139.231, 361.816 139.518 M 279 141.370 C 279 142.584, 284.168 151.487, 285.283 152.196 C 288.342 154.140, 289.222 151.021, 286.240 148.807 C 285.272 148.088, 283.247 146.003, 281.740 144.173 C 280.233 142.344, 279 141.082, 279 141.370 M 154.791 147.988 C 153.302 148.437, 150.825 149.636, 149.287 150.652 C 147.749 151.669, 145.593 153.069, 144.496 153.764 C 139.144 157.155, 136.410 158.953, 135.484 159.691 C 120.264 171.815, 106.501 185.963, 100.647 195.500 C 98.959 198.250, 97.070 200.950, 96.448 201.500 C 95.826 202.050, 94.047 204.750, 92.495 207.500 C 90.943 210.250, 89.384 212.725, 89.030 213 C 88.677 213.275, 86.675 216.650, 84.581 220.500 C 82.488 224.350, 80.436 227.725, 80.022 228 C 78.852 228.777, 74 239.498, 74 241.308 C 74 242.196, 73.142 243.727, 72.094 244.711 C 71.045 245.695, 69.441 249.079, 68.528 252.232 C 67.615 255.384, 66.448 258.223, 65.934 258.541 C 65.420 258.858, 65 259.991, 65 261.059 C 65 262.127, 64.619 263, 64.154 263 C 63.688 263, 62.592 266.038, 61.719 269.750 C 57.835 286.259, 56.699 290.532, 56.073 291 C 55.465 291.454, 54.282 298.304, 50.804 321.500 C 49.186 332.293, 49.485 361.716, 51.423 382.500 C 53.035 399.787, 54.896 412.097, 56.035 413 C 56.382 413.275, 57.205 416.875, 57.864 421 C 59.507 431.278, 63.222 446.428, 64.198 446.833 C 64.639 447.017, 65 448.035, 65 449.097 C 65 450.159, 65.408 451.809, 65.906 452.764 C 66.404 453.719, 67.615 457.359, 68.596 460.854 C 69.577 464.349, 70.929 467.419, 71.600 467.677 C 72.271 467.934, 73.120 469.350, 73.487 470.822 C 74.867 476.352, 79.308 484.071, 83.250 487.793 C 84.212 488.701, 85 489.957, 85 490.583 C 85 492.914, 115.770 524.407, 122.410 528.871 C 130.554 534.347, 131.616 534.984, 136 537.020 C 143.182 540.354, 143.952 540.652, 155.034 544.372 C 160.828 546.316, 167.578 548.215, 170.034 548.590 C 172.490 548.966, 174.950 549.617, 175.500 550.038 C 177.015 551.197, 190.856 553.085, 198.620 553.192 C 206.795 553.304, 222.690 552.135, 229 550.958 C 244.389 548.087, 249.034 547.001, 253.500 545.227 C 256.250 544.135, 261.200 542.663, 264.500 541.956 C 267.800 541.248, 270.950 540.357, 271.500 539.975 C 272.780 539.087, 276.406 538.398, 293 535.888 C 307.771 533.655, 328.396 533.311, 347.007 534.987 C 369.742 537.036, 404.781 534.894, 419 530.587 C 421.475 529.837, 425.911 528.667, 428.858 527.986 C 431.804 527.306, 436.529 525.866, 439.358 524.788 C 442.186 523.710, 446.018 522.451, 447.872 521.991 C 449.727 521.532, 451.730 520.670, 452.322 520.078 C 452.915 519.485, 454.007 519, 454.750 519 C 456.219 519, 475.348 509.636, 481 506.150 C 482.925 504.962, 485.963 503.312, 487.750 502.482 C 489.538 501.652, 491 500.584, 491 500.108 C 491 499.632, 492.462 498.656, 494.250 497.940 C 496.037 497.223, 498.919 495.421, 500.653 493.934 C 502.387 492.448, 504.195 491.067, 504.671 490.866 C 505.147 490.665, 507.103 488.032, 509.018 485.015 C 510.933 481.999, 513.962 478.023, 515.750 476.179 C 517.538 474.336, 519 472.417, 519 471.914 C 519 471.411, 519.563 470.998, 520.250 470.996 C 522.161 470.991, 525 463.056, 525 457.720 C 525 453.264, 525.145 452.998, 527.284 453.535 C 529.196 454.015, 529.836 453.490, 531.219 450.304 C 532.128 448.212, 533.839 442.453, 535.022 437.506 C 536.205 432.559, 537.532 428.284, 537.971 428.006 C 538.696 427.546, 540.426 406.651, 542.942 367.967 C 543.818 354.497, 543.709 347.028, 542.528 339.500 C 542.269 337.850, 541.807 332.450, 541.501 327.500 C 540.356 308.954, 538.634 294.475, 537.457 293.500 C 536.793 292.950, 535.445 289.350, 534.460 285.500 C 533.475 281.650, 532.353 278.050, 531.965 277.500 C 531.578 276.950, 530.963 274.845, 530.599 272.823 C 530.235 270.800, 529.508 269, 528.983 268.823 C 528.459 268.645, 527.600 266.475, 527.075 264 C 525.656 257.317, 521.844 246.643, 520.467 245.500 C 519.805 244.950, 518.434 242.120, 517.420 239.212 C 516.407 236.303, 514.772 233.060, 513.789 232.004 C 512.805 230.948, 512 229.771, 512 229.389 C 512 229.006, 510.650 225.836, 509 222.344 C 507.350 218.852, 506 215.546, 506 214.997 C 506 214.449, 505.603 214, 505.117 214 C 504.631 214, 503.026 211.412, 501.549 208.250 C 500.072 205.088, 498.331 202.046, 497.682 201.491 C 496.460 200.448, 490 191.245, 490 190.548 C 490 190.331, 488.763 188.842, 487.250 187.238 C 485.738 185.635, 482.700 182.175, 480.500 179.550 C 470.462 167.570, 461.948 161.582, 449 157.393 C 446.525 156.592, 443.600 155.410, 442.500 154.765 C 439.745 153.151, 409.862 152.540, 398.192 153.859 C 389.842 154.804, 388.261 155.328, 382.828 158.956 C 379.497 161.180, 375.811 163.003, 374.636 163.006 C 373.461 163.010, 371.345 163.615, 369.933 164.352 C 368.522 165.088, 366.190 165.986, 364.753 166.347 C 363.105 166.761, 362.021 167.805, 361.819 169.173 C 361.344 172.403, 359.499 172.449, 356.565 169.303 C 354.364 166.944, 353.798 166.738, 352.990 168 C 352.463 168.825, 352.024 172.055, 352.015 175.179 C 351.985 186.295, 346.819 186.963, 332.951 177.643 C 329.212 175.129, 328.591 174.979, 327.800 176.393 C 326.874 178.047, 323 178.663, 323 177.156 C 323 176.691, 321.876 175.004, 320.501 173.406 C 319.127 171.807, 318.002 170.235, 318.001 169.911 C 318 169.366, 313.487 167, 312.449 167 C 312.198 167, 312.107 168.445, 312.246 170.211 C 312.572 174.328, 309.827 175.126, 306.404 171.910 L 303.986 169.638 301.993 171.777 C 300.897 172.954, 300 174.307, 300 174.784 C 300 176.365, 295.404 180, 293.436 179.977 C 291.386 179.952, 284 173.878, 284 172.217 C 284 171.678, 282.425 170.036, 280.500 168.568 C 278.575 167.100, 277 165.246, 277 164.449 C 277 163.652, 276.539 163, 275.975 163 C 275.412 163, 274.523 161.875, 274 160.500 C 273.209 158.420, 272.391 158, 269.132 158 C 266.572 158, 265.014 158.520, 264.638 159.500 C 263.976 161.227, 261 161.550, 261 159.895 C 261 156.786, 241.015 162.371, 228.917 168.860 C 223.646 171.687, 218.594 174, 217.690 174 C 216.786 174, 215.327 172.902, 214.448 171.561 C 212.950 169.275, 212.988 168.935, 215.052 166.144 C 216.765 163.827, 217.109 162.392, 216.600 159.683 C 215.863 155.752, 214.715 154.566, 210.723 153.612 C 209.196 153.247, 205.596 151.895, 202.723 150.606 C 197.562 148.292, 191.007 148.035, 188.482 150.049 C 186.866 151.337, 170.494 153.341, 167.575 152.608 C 166.051 152.226, 164.531 150.896, 163.989 149.472 C 162.984 146.828, 160.155 146.371, 154.791 147.988 M 241 149.523 C 241 152.739, 238.672 153.670, 235.624 151.673 C 233.390 150.210, 233.202 150.261, 232.119 152.638 C 231.490 154.020, 231.232 155.566, 231.546 156.075 C 232.539 157.681, 236.951 157.082, 241.302 154.750 C 243.611 153.512, 245.623 152.452, 245.774 152.393 C 246.566 152.084, 244.698 149.293, 242.981 148.220 C 241.202 147.109, 241 147.242, 241 149.523 M 299 148.276 C 299 149.697, 301.497 153, 302.571 153 C 303.585 153, 302.853 151.137, 301 149 C 299.482 147.249, 299 147.075, 299 148.276 M 294.014 162.281 C 294.043 164.928, 295.275 167.948, 296.114 167.430 C 297.569 166.530, 297.117 162.259, 295.500 161.638 C 294.670 161.320, 294.006 161.607, 294.014 162.281 M 292 170 C 292 170.550, 292.450 171, 293 171 C 293.550 171, 294 170.550, 294 170 C 294 169.450, 293.550 169, 293 169 C 292.450 169, 292 169.450, 292 170 M 340.531 172.950 C 339.939 173.908, 342.959 176, 344.934 176 C 345.520 176, 346 175.100, 346 174 C 346 172.546, 345.333 172, 343.559 172 C 342.216 172, 340.854 172.427, 340.531 172.950" stroke="none" fill="black" fill-rule="evenodd"/>
</svg>